<svg xmlns="http://www.w3.org/2000/svg">
  <symbol id="icon-shopping-bag" viewBox="0 0 14 18" fill="none">
    <path d="M12 4H10.3203C10.3203 3.375 10.1641 2.8151 9.85156 2.32031C9.5651 1.82552 9.17448 1.4349 8.67969 1.14844C8.1849 0.835938 7.625 0.679688 7 0.679688C6.375 0.679688 5.8151 0.835938 5.32031 1.14844C4.82552 1.4349 4.42188 1.82552 4.10938 2.32031C3.82292 2.8151 3.67969 3.375 3.67969 4H2C1.53125 4 1.1276 4.16927 0.789062 4.50781C0.476562 4.82031 0.320312 5.21094 0.320312 5.67969V15.6797C0.320312 16.1224 0.476562 16.513 0.789062 16.8516C1.1276 17.1641 1.53125 17.3203 2 17.3203H12C12.4688 17.3203 12.8594 17.1641 13.1719 16.8516C13.5104 16.513 13.6797 16.1224 13.6797 15.6797V5.67969C13.6797 5.21094 13.5104 4.82031 13.1719 4.50781C12.8594 4.16927 12.4688 4 12 4ZM5.32031 7.32031C5.32031 7.55469 5.24219 7.76302 5.08594 7.94531C4.92969 8.10156 4.73438 8.17969 4.5 8.17969C4.26562 8.17969 4.07031 8.10156 3.91406 7.94531C3.75781 7.76302 3.67969 7.55469 3.67969 7.32031V5.67969H5.32031V7.32031ZM7 2.32031C7.46875 2.32031 7.85938 2.48958 8.17188 2.82812C8.51042 3.14062 8.67969 3.53125 8.67969 4H5.32031C5.32031 3.53125 5.47656 3.14062 5.78906 2.82812C6.1276 2.48958 6.53125 2.32031 7 2.32031ZM10.3203 7.32031C10.3203 7.55469 10.2422 7.76302 10.0859 7.94531C9.92969 8.10156 9.73438 8.17969 9.5 8.17969C9.26562 8.17969 9.07031 8.10156 8.91406 7.94531C8.75781 7.76302 8.67969 7.55469 8.67969 7.32031V5.67969H10.3203V7.32031Z" fill="currentColor"/>
  </symbol>

  <symbol id="icon-chevron" viewBox="0 0 6 8" fill="none">
    <path d="M1.65625 0L5.65625 4L1.65625 8L0.71875 7.0625L3.78125 4L0.71875 0.9375L1.65625 0Z" fill="currentColor"/>
  </symbol>

  <symbol id="icon-house" viewBox="0 0 28 23" fill="none">
    <path d="M11.3125 9.3125H16.6875C16.6875 8.60417 16.4167 8 15.875 7.5C15.3333 6.95833 14.7083 6.6875 14 6.6875C13.2917 6.6875 12.6667 6.95833 12.125 7.5C11.5833 8 11.3125 8.60417 11.3125 9.3125ZM23.3125 8.375L27.3125 12H23.3125V22.6875H16.6875V14.6875H11.3125V22.6875H4.6875V12H0.6875L14 0L19.3125 4.8125V1.3125H23.3125V8.375Z" fill="currentColor"/>
  </symbol>

  <symbol id="icon-pin" viewBox="0 0 10 14" fill="none">
    <path d="M3.8125 6.1875C4.14583 6.5 4.54167 6.65625 5 6.65625C5.45833 6.65625 5.84375 6.5 6.15625 6.1875C6.48958 5.85417 6.65625 5.45833 6.65625 5C6.65625 4.54167 6.48958 4.15625 6.15625 3.84375C5.84375 3.51042 5.45833 3.34375 5 3.34375C4.54167 3.34375 4.14583 3.51042 3.8125 3.84375C3.5 4.15625 3.34375 4.54167 3.34375 5C3.34375 5.45833 3.5 5.85417 3.8125 6.1875ZM1.6875 1.71875C2.60417 0.802083 3.70833 0.34375 5 0.34375C6.29167 0.34375 7.38542 0.802083 8.28125 1.71875C9.19792 2.61458 9.65625 3.70833 9.65625 5C9.65625 5.64583 9.48958 6.38542 9.15625 7.21875C8.84375 8.05208 8.45833 8.83333 8 9.5625C7.54167 10.2917 7.08333 10.9792 6.625 11.625C6.1875 12.25 5.8125 12.75 5.5 13.125L5 13.6562C4.875 13.5104 4.70833 13.3229 4.5 13.0938C4.29167 12.8438 3.91667 12.3646 3.375 11.6562C2.83333 10.9271 2.35417 10.2292 1.9375 9.5625C1.54167 8.875 1.17708 8.10417 0.84375 7.25C0.510417 6.39583 0.34375 5.64583 0.34375 5C0.34375 3.70833 0.791667 2.61458 1.6875 1.71875Z" fill="currentColor"/>
  </symbol>

  <symbol id="icon-bath" viewBox="0 0 14 14" fill="none">
    <path d="M12.3438 7.65625H13.6562V11.6562C13.6562 12.0104 13.5208 12.3229 13.25 12.5938C13 12.8646 12.6979 13 12.3438 13C12.3438 13.1875 12.2708 13.3438 12.125 13.4688C12 13.5938 11.8438 13.6562 11.6562 13.6562H2.34375C2.15625 13.6562 1.98958 13.5938 1.84375 13.4688C1.71875 13.3438 1.65625 13.1875 1.65625 13C1.30208 13 0.989583 12.8646 0.71875 12.5938C0.46875 12.3229 0.34375 12.0104 0.34375 11.6562V7.65625H2.34375V7.15625C2.34375 6.76042 2.48958 6.41667 2.78125 6.125C3.09375 5.8125 3.44792 5.65625 3.84375 5.65625C4.26042 5.65625 4.63542 5.82292 4.96875 6.15625L5.875 7.1875C6 7.33333 6.1875 7.48958 6.4375 7.65625H11V2.21875C11 2.07292 10.9479 1.94792 10.8438 1.84375C10.7396 1.71875 10.6042 1.65625 10.4375 1.65625C10.2917 1.65625 10.1667 1.70833 10.0625 1.8125L9.21875 2.65625C9.26042 2.82292 9.28125 2.9375 9.28125 3C9.28125 3.22917 9.20833 3.46875 9.0625 3.71875L7.21875 1.875C7.46875 1.72917 7.70833 1.65625 7.9375 1.65625C8.04167 1.65625 8.15625 1.67708 8.28125 1.71875L9.125 0.875C9.47917 0.520833 9.91667 0.34375 10.4375 0.34375C10.9583 0.34375 11.4062 0.53125 11.7812 0.90625C12.1562 1.26042 12.3438 1.69792 12.3438 2.21875V7.65625ZM2.71875 4.625C2.46875 4.35417 2.34375 4.03125 2.34375 3.65625C2.34375 3.28125 2.46875 2.96875 2.71875 2.71875C2.96875 2.46875 3.28125 2.34375 3.65625 2.34375C4.03125 2.34375 4.34375 2.46875 4.59375 2.71875C4.86458 2.96875 5 3.28125 5 3.65625C5 4.03125 4.86458 4.35417 4.59375 4.625C4.34375 4.875 4.03125 5 3.65625 5C3.28125 5 2.96875 4.875 2.71875 4.625Z" fill="currentColor"/>
  </symbol>

  <symbol id="icon-bed" viewBox="0 0 14 10" fill="none">
    <path d="M13 4.1875V2.34375C13 1.96875 12.9062 1.63542 12.7188 1.34375C12.5521 1.03125 12.3125 0.791667 12 0.625C11.7083 0.4375 11.375 0.34375 11 0.34375H8.34375C8.07292 0.34375 7.82292 0.395833 7.59375 0.5C7.36458 0.583333 7.16667 0.697917 7 0.84375C6.83333 0.697917 6.63542 0.583333 6.40625 0.5C6.17708 0.395833 5.92708 0.34375 5.65625 0.34375H3C2.625 0.34375 2.28125 0.4375 1.96875 0.625C1.67708 0.791667 1.4375 1.03125 1.25 1.34375C1.08333 1.63542 1 1.96875 1 2.34375V4.1875C0.791667 4.375 0.625 4.59375 0.5 4.84375C0.395833 5.09375 0.34375 5.36458 0.34375 5.65625V9.65625H1.65625V8.34375H12.3438V9.65625H13.6562V5.65625C13.6562 5.36458 13.5938 5.09375 13.4688 4.84375C13.3646 4.59375 13.2083 4.375 13 4.1875ZM8.34375 1.65625H11C11.1875 1.65625 11.3438 1.72917 11.4688 1.875C11.5938 2 11.6562 2.15625 11.6562 2.34375V3.65625H7.65625V2.34375C7.65625 2.15625 7.71875 2 7.84375 1.875C7.98958 1.72917 8.15625 1.65625 8.34375 1.65625ZM2.34375 2.34375C2.34375 2.15625 2.40625 2 2.53125 1.875C2.65625 1.72917 2.8125 1.65625 3 1.65625H5.65625C5.84375 1.65625 6 1.72917 6.125 1.875C6.27083 2 6.34375 2.15625 6.34375 2.34375V3.65625H2.34375V2.34375ZM1.65625 7V5.65625C1.65625 5.48958 1.71875 5.34375 1.84375 5.21875C1.98958 5.07292 2.15625 5 2.34375 5H11.6562C11.8438 5 12 5.07292 12.125 5.21875C12.2708 5.34375 12.3438 5.48958 12.3438 5.65625V7H1.65625Z" fill="currentColor"/>
  </symbol>

  <symbol id="icon-ruler" viewBox="0 0 12 12" fill="none">
    <path d="M2.65625 9.34375H6.5L2.65625 5.5V9.34375ZM9.78125 9.78125L11.3438 11.3438H2C1.64583 11.3438 1.33333 11.2083 1.0625 10.9375C0.791667 10.6667 0.65625 10.3542 0.65625 10V0.65625L2.21875 2.21875L1.53125 2.9375L2 3.40625L2.6875 2.6875L4 4L3.28125 4.6875L3.75 5.1875L4.46875 4.46875L5.78125 5.78125L5.0625 6.46875L5.53125 6.9375L6.25 6.25L7.53125 7.53125L6.8125 8.25L7.3125 8.71875L8 8L9.3125 9.3125L8.59375 10L9.0625 10.4688L9.78125 9.78125Z" fill="currentColor"/>
  </symbol>

  <symbol id="icon-star" viewBox="0 0 20 20" fill="none">
    <path d="M9.07088 0.644571C9.41462 -0.214858 10.5854 -0.214857 10.9291 0.644574L12.9579 5.71708C13.1029 6.0794 13.4306 6.32696 13.8067 6.35831L19.0727 6.79735C19.9649 6.87173 20.3267 8.02961 19.6469 8.63516L15.6348 12.2092C15.3482 12.4644 15.223 12.8651 15.3106 13.2466L16.5363 18.5905C16.744 19.4959 15.7969 20.2116 15.033 19.7264L10.5245 16.8627C10.2025 16.6581 9.7975 16.6581 9.47548 16.8627L4.96699 19.7264C4.20311 20.2116 3.25596 19.4959 3.46363 18.5905L4.68942 13.2466C4.77698 12.8651 4.65182 12.4644 4.36526 12.2092L0.353062 8.63516C-0.326718 8.02961 0.035068 6.87173 0.927291 6.79735L6.19336 6.35831C6.5695 6.32696 6.89716 6.0794 7.04207 5.71708L9.07088 0.644571Z" fill="currentColor"/>
  </symbol>

  <symbol id="icon-search" viewBox="0 0 19 18" fill="none">
    <path fill-rule="evenodd" clip-rule="evenodd" d="M13.875 12.4554L17.875 16.4602C18.0536 16.6589 18.0448 16.9631 17.855 17.1511L17.155 17.8519C17.0611 17.9467 16.9333 18 16.8 18C16.6667 18 16.5389 17.9467 16.445 17.8519L12.445 13.8471C12.3344 13.7362 12.234 13.6156 12.145 13.4867L11.395 12.4855C10.1541 13.4776 8.613 14.0178 7.025 14.0173C3.75261 14.0287 0.909021 11.7686 0.177731 8.5751C-0.553569 5.38161 1.0226 2.10699 3.9731 0.689912C6.92359 -0.727158 10.461 0.0915127 12.491 2.66125C14.521 5.23099 14.5019 8.866 12.445 11.4142L13.445 12.105C13.6012 12.2051 13.7454 12.3226 13.875 12.4554ZM2.025 7.0089C2.025 9.7736 4.26357 12.0149 7.025 12.0149C8.3511 12.0149 9.6229 11.4875 10.5605 10.5487C11.4982 9.6099 12.025 8.3366 12.025 7.0089C12.025 4.24412 9.7864 2.00285 7.025 2.00285C4.26357 2.00285 2.025 4.24412 2.025 7.0089Z" fill="currentColor"/>
  </symbol>

  <symbol id="icon-cross" viewBox="0 0 16 16" fill="none">
    <path d="M14.8353 14.3639L14.3638 14.8353C14.1035 15.0956 13.6814 15.0956 13.421 14.8353L7.9999 9.4141L2.5787 14.8352C2.3184 15.0956 1.89626 15.0956 1.63591 14.8352L1.1645 14.3638C0.904151 14.1035 0.904151 13.6814 1.1645 13.421L6.5857 7.9999L1.1645 2.5787C0.904151 2.3184 0.904151 1.89626 1.1645 1.63591L1.6359 1.16451C1.89625 0.904159 2.3184 0.904159 2.5787 1.16451L7.9999 6.5857L13.421 1.1645C13.6814 0.90415 14.1035 0.90415 14.3638 1.1645L14.8353 1.6359C15.0956 1.89625 15.0956 2.3184 14.8353 2.5787L9.4141 7.9999L14.8353 13.421C15.0956 13.6814 15.0956 14.1035 14.8353 14.3639Z" fill="currentColor"/>
  </symbol>

  <symbol id="icon-brand-logo" viewBox="0 0 32 32" fill="none">
    <path d="M20 0H12C5.37258 0 0 5.37258 0 12V20C0 26.6274 5.37258 32 12 32H20C26.6274 32 32 26.6274 32 20V12C32 5.37258 26.6274 0 20 0Z" fill="currentColor"/>
  </symbol>

  <symbol id="icon-brand" viewBox="0 0 63 16" fill="none">
    <path d="M0.360001 15V0.999998H5.5C6.62 0.999998 7.54 1.19333 8.26 1.58C8.9933 1.95333 9.54 2.4667 9.9 3.12C10.26 3.76 10.44 4.4733 10.44 5.26C10.44 6.1133 10.2133 6.8933 9.76 7.6C9.32 8.3067 8.6267 8.82 7.68 9.14L10.58 15H7.64L5.04 9.48H2.92V15H0.360001ZM2.92 7.6H5.34C6.1933 7.6 6.82 7.3933 7.22 6.98C7.62 6.5667 7.82 6.02 7.82 5.34C7.82 4.6733 7.62 4.14 7.22 3.74C6.8333 3.34 6.2 3.14 5.32 3.14H2.92V7.6ZM16.9755 15.24C15.9755 15.24 15.0888 15.0267 14.3155 14.6C13.5421 14.1733 12.9355 13.5733 12.4955 12.8C12.0555 12.0267 11.8355 11.1333 11.8355 10.12C11.8355 9.0933 12.0488 8.18 12.4755 7.38C12.9155 6.58 13.5155 5.96 14.2755 5.52C15.0488 5.0667 15.9555 4.84 16.9955 4.84C17.9688 4.84 18.8288 5.0533 19.5755 5.48C20.3221 5.9067 20.9021 6.4933 21.3155 7.24C21.7421 7.9733 21.9555 8.7933 21.9555 9.7C21.9555 9.8467 21.9488 10 21.9355 10.16C21.9355 10.32 21.9288 10.4867 21.9155 10.66H14.3755C14.4288 11.4333 14.6955 12.04 15.1755 12.48C15.6688 12.92 16.2621 13.14 16.9555 13.14C17.4755 13.14 17.9088 13.0267 18.2555 12.8C18.6155 12.56 18.8821 12.2533 19.0555 11.88H21.6555C21.4688 12.5067 21.1555 13.08 20.7155 13.6C20.2888 14.1067 19.7555 14.5067 19.1155 14.8C18.4888 15.0933 17.7755 15.24 16.9755 15.24ZM16.9955 6.92C16.3688 6.92 15.8155 7.1 15.3355 7.46C14.8555 7.8067 14.5488 8.34 14.4155 9.06H19.3555C19.3155 8.4067 19.0755 7.8867 18.6355 7.5C18.1955 7.1133 17.6488 6.92 16.9955 6.92ZM27.5286 15.24C26.6753 15.24 25.9753 15.1067 25.4286 14.84C24.8819 14.56 24.4753 14.1933 24.2086 13.74C23.9419 13.2867 23.8086 12.7867 23.8086 12.24C23.8086 11.32 24.1686 10.5733 24.8886 10C25.6086 9.4267 26.6886 9.14 28.1286 9.14H30.6486V8.9C30.6486 8.22 30.4553 7.72 30.0686 7.4C29.6819 7.08 29.2019 6.92 28.6286 6.92C28.1086 6.92 27.6553 7.0467 27.2686 7.3C26.8819 7.54 26.6419 7.9 26.5486 8.38H24.0486C24.1153 7.66 24.3553 7.0333 24.7686 6.5C25.1953 5.9667 25.7419 5.56 26.4086 5.28C27.0753 4.9867 27.8219 4.84 28.6486 4.84C30.0619 4.84 31.1753 5.1933 31.9886 5.9C32.8019 6.6067 33.2086 7.6067 33.2086 8.9V15H31.0286L30.7886 13.4C30.4953 13.9333 30.0819 14.3733 29.5486 14.72C29.0286 15.0667 28.3553 15.24 27.5286 15.24ZM28.1086 13.24C28.8419 13.24 29.4086 13 29.8086 12.52C30.2219 12.04 30.4819 11.4467 30.5886 10.74H28.4086C27.7286 10.74 27.2419 10.8667 26.9486 11.12C26.6553 11.36 26.5086 11.66 26.5086 12.02C26.5086 12.4067 26.6553 12.7067 26.9486 12.92C27.2419 13.1333 27.6286 13.24 28.1086 13.24ZM35.6516 15V0.599998H38.2116V15H35.6516ZM45.6873 15.24C44.674 15.24 43.7807 15.02 43.0073 14.58C42.234 14.14 41.6207 13.5267 41.1673 12.74C40.7273 11.9533 40.5073 11.0533 40.5073 10.04C40.5073 9.0267 40.7273 8.1267 41.1673 7.34C41.6207 6.5533 42.234 5.94 43.0073 5.5C43.7807 5.06 44.674 4.84 45.6873 4.84C46.954 4.84 48.0207 5.1733 48.8873 5.84C49.754 6.4933 50.3073 7.4 50.5473 8.56H47.8473C47.714 8.08 47.4473 7.7067 47.0473 7.44C46.6607 7.16 46.2007 7.02 45.6673 7.02C44.9607 7.02 44.3607 7.2867 43.8673 7.82C43.374 8.3533 43.1273 9.0933 43.1273 10.04C43.1273 10.9867 43.374 11.7267 43.8673 12.26C44.3607 12.7933 44.9607 13.06 45.6673 13.06C46.2007 13.06 46.6607 12.9267 47.0473 12.66C47.4473 12.3933 47.714 12.0133 47.8473 11.52H50.5473C50.3073 12.64 49.754 13.54 48.8873 14.22C48.0207 14.9 46.954 15.24 45.6873 15.24ZM57.5795 15.24C56.6195 15.24 55.7529 15.02 54.9795 14.58C54.2195 14.14 53.6129 13.5333 53.1595 12.76C52.7195 11.9733 52.4995 11.0667 52.4995 10.04C52.4995 9.0133 52.7262 8.1133 53.1795 7.34C53.6329 6.5533 54.2395 5.94 54.9995 5.5C55.7729 5.06 56.6395 4.84 57.5995 4.84C58.5462 4.84 59.4 5.06 60.16 5.5C60.933 5.94 61.54 6.5533 61.98 7.34C62.433 8.1133 62.66 9.0133 62.66 10.04C62.66 11.0667 62.433 11.9733 61.98 12.76C61.54 13.5333 60.933 14.14 60.16 14.58C59.386 15.02 58.5262 15.24 57.5795 15.24ZM57.5795 13.02C58.2462 13.02 58.8262 12.7733 59.32 12.28C59.813 11.7733 60.06 11.0267 60.06 10.04C60.06 9.0533 59.813 8.3133 59.32 7.82C58.8262 7.3133 58.2529 7.06 57.5995 7.06C56.9195 7.06 56.3329 7.3133 55.8395 7.82C55.3595 8.3133 55.1195 9.0533 55.1195 10.04C55.1195 11.0267 55.3595 11.7733 55.8395 12.28C56.3329 12.7733 56.9129 13.02 57.5795 13.02Z" fill="currentColor"/>
  </symbol>


  <symbol id="icon-hamburger" viewBox="0 0 100 80" fill="currentColor">
    <rect width="100" height="20" rx="10"></rect>
    <rect y="30" width="100" height="20" rx="10"></rect>
    <rect y="60" width="100" height="20" rx="10"></rect>
  </symbol>

  <symbol id="icon-facebook" viewBox="0 0 10 18" fill="none">
    <path d="M9.5 3H6.5C5.9477 3 5.5 3.44772 5.5 4V7H9.5C9.6137 6.99748 9.7216 7.0504 9.7892 7.1419C9.8568 7.2334 9.8758 7.352 9.84 7.46L9.1 9.66C9.0318 9.8619 8.8431 9.9984 8.63 10H5.5V17.5C5.5 17.7761 5.2761 18 5 18H2.5C2.22386 18 2 17.7761 2 17.5V10H0.5C0.22386 10 0 9.7761 0 9.5V7.5C0 7.2239 0.22386 7 0.5 7H2V4C2 1.79086 3.7909 0 6 0H9.5C9.7761 0 10 0.22386 10 0.5V2.5C10 2.77614 9.7761 3 9.5 3Z" fill="currentColor"/>
  </symbol>

  <symbol id="icon-instagram" viewBox="0 0 18 18" fill="none">
    <path fill-rule="evenodd" clip-rule="evenodd" d="M13 0H5C2.23858 0 0 2.23858 0 5V13C0 15.7614 2.23858 18 5 18H13C15.7614 18 18 15.7614 18 13V5C18 2.23858 15.7614 0 13 0ZM16.25 13C16.2445 14.7926 14.7926 16.2445 13 16.25H5C3.20735 16.2445 1.75549 14.7926 1.75 13V5C1.75549 3.20735 3.20735 1.75549 5 1.75H13C14.7926 1.75549 16.2445 3.20735 16.25 5V13ZM13.75 5.25C14.3023 5.25 14.75 4.80228 14.75 4.25C14.75 3.69772 14.3023 3.25 13.75 3.25C13.1977 3.25 12.75 3.69772 12.75 4.25C12.75 4.80228 13.1977 5.25 13.75 5.25ZM9 4.5C6.51472 4.5 4.5 6.51472 4.5 9C4.5 11.4853 6.51472 13.5 9 13.5C11.4853 13.5 13.5 11.4853 13.5 9C13.5027 7.8057 13.0294 6.65957 12.1849 5.81508C11.3404 4.97059 10.1943 4.49734 9 4.5ZM6.25 9C6.25 10.5188 7.4812 11.75 9 11.75C10.5188 11.75 11.75 10.5188 11.75 9C11.75 7.4812 10.5188 6.25 9 6.25C7.4812 6.25 6.25 7.4812 6.25 9Z" fill="currentColor"/>
  </symbol>

  <symbol id="icon-twitter" viewBox="0 0 18 16" fill="none">
    <path d="M17.9727 2.7174C17.5083 3.33692 16.9469 3.87733 16.3102 4.31776C16.3102 4.47959 16.3102 4.64142 16.3102 4.81225C16.3153 7.7511 15.1414 10.5691 13.0517 12.6345C10.9619 14.6999 8.1311 15.8399 5.19393 15.7989C3.49587 15.8046 1.81955 15.4169 0.2963 14.6661C0.21416 14.6302 0.16119 14.549 0.1615 14.4593V14.3604C0.1615 14.2313 0.26611 14.1267 0.39515 14.1267C2.0643 14.0716 3.6739 13.4929 4.99622 12.4724C3.48541 12.4419 2.12607 11.5469 1.50048 10.1707C1.46889 10.0956 1.47872 10.0093 1.52645 9.9432C1.57417 9.8771 1.65288 9.8407 1.73413 9.8471C2.1933 9.8932 2.65706 9.8505 3.10008 9.7212C1.43227 9.375 0.17909 7.9904 -0.000260007 6.2957C-0.00663001 6.2144 0.0298001 6.1357 0.0958801 6.0879C0.16195 6.0402 0.24812 6.0303 0.32326 6.062C0.77082 6.2595 1.25397 6.3635 1.74312 6.3676C0.28172 5.40846 -0.34951 3.58405 0.20643 1.92622C0.26382 1.76513 0.40169 1.64612 0.56938 1.61294C0.73706 1.57975 0.90984 1.63728 1.0242 1.76439C2.99627 3.86325 5.70592 5.11396 8.5818 5.25279C8.5082 4.95885 8.472 4.65676 8.474 4.35372C8.5009 2.76472 9.4841 1.34921 10.9633 0.769872C12.4424 0.190542 14.1248 0.562032 15.2229 1.71044C15.9713 1.56785 16.6949 1.31645 17.3706 0.964212C17.4201 0.933312 17.4829 0.933312 17.5324 0.964212C17.5633 1.01373 17.5633 1.07652 17.5324 1.12604C17.2051 1.87552 16.6522 2.50412 15.9508 2.92419C16.565 2.85296 17.1684 2.70807 17.7481 2.49264C17.7969 2.45942 17.861 2.45942 17.9098 2.49264C17.9507 2.51134 17.9813 2.54711 17.9934 2.59042C18.0055 2.63373 17.9979 2.68018 17.9727 2.7174Z" fill="currentColor"/>
  </symbol>

  <symbol id="icon-linkedin" viewBox="0 0 18 18" fill="none">
    <path fill-rule="evenodd" clip-rule="evenodd" d="M2 0H16C17.1046 0 18 0.89543 18 2V16C18 17.1046 17.1046 18 16 18H2C0.89543 18 0 17.1046 0 16V2C0 0.89543 0.89543 0 2 0ZM5 15C5.27614 15 5.5 14.7761 5.5 14.5V7.5C5.5 7.2239 5.27614 7 5 7H3.5C3.22386 7 3 7.2239 3 7.5V14.5C3 14.7761 3.22386 15 3.5 15H5ZM4.25 6C3.42157 6 2.75 5.32843 2.75 4.5C2.75 3.67157 3.42157 3 4.25 3C5.07843 3 5.75 3.67157 5.75 4.5C5.75 5.32843 5.07843 6 4.25 6ZM14.5 15C14.7761 15 15 14.7761 15 14.5V9.9C15.0325 8.3108 13.8576 6.95452 12.28 6.76C11.177 6.65925 10.1083 7.1744 9.5 8.1V7.5C9.5 7.2239 9.2761 7 9 7H7.5C7.2239 7 7 7.2239 7 7.5V14.5C7 14.7761 7.2239 15 7.5 15H9C9.2761 15 9.5 14.7761 9.5 14.5V10.75C9.5 9.9216 10.1716 9.25 11 9.25C11.8284 9.25 12.5 9.9216 12.5 10.75V14.5C12.5 14.7761 12.7239 15 13 15H14.5Z" fill="currentColor"/>
  </symbol>

  <symbol id="icon-sheet" viewBox="0 0 22 28" fill="none">
    <path d="M12.3125 10H19.6875L12.3125 2.6875V10ZM16.3125 16.6875V14H5.6875V16.6875H16.3125ZM16.3125 22V19.3125H5.6875V22H16.3125ZM13.6875 0.6875L21.6875 8.6875V24.6875C21.6875 25.3958 21.4167 26.0208 20.875 26.5625C20.3333 27.0625 19.7083 27.3125 19 27.3125H3C2.29167 27.3125 1.66667 27.0625 1.125 26.5625C0.583333 26.0208 0.3125 25.3958 0.3125 24.6875L0.375 3.3125C0.375 2.60417 0.625 2 1.125 1.5C1.66667 0.958333 2.29167 0.6875 3 0.6875H13.6875Z" fill="currentColor"/>
  </symbol>

  <symbol id="icon-family" viewBox="0 0 28 28" fill="none">
    <path d="M19.3125 3.3125C19.3125 2.60417 19.5625 2 20.0625 1.5C20.6042 0.958333 21.25 0.6875 22 0.6875C22.75 0.6875 23.375 0.958333 23.875 1.5C24.4167 2 24.6875 2.60417 24.6875 3.3125C24.6875 4.0625 24.4167 4.70833 23.875 5.25C23.375 5.75 22.75 6 22 6C21.25 6 20.6042 5.75 20.0625 5.25C19.5625 4.70833 19.3125 4.0625 19.3125 3.3125ZM24.6875 27.3125V19.3125H28L24.625 9.1875C24.4167 8.60417 24.0833 8.14583 23.625 7.8125C23.1667 7.47917 22.6458 7.3125 22.0625 7.3125H21.9375C21.3542 7.3125 20.8333 7.47917 20.375 7.8125C19.9167 8.14583 19.5833 8.60417 19.375 9.1875L18.25 12.625C18.9583 13 19.5417 13.5625 20 14.3125C20.4583 15.0208 20.6875 15.8125 20.6875 16.6875V27.3125H24.6875ZM14.6875 13.3125C15.2292 13.3125 15.6875 13.125 16.0625 12.75C16.4792 12.375 16.6875 11.8958 16.6875 11.3125C16.6875 10.7708 16.4792 10.3125 16.0625 9.9375C15.6875 9.52083 15.2292 9.3125 14.6875 9.3125C14.1042 9.3125 13.625 9.52083 13.25 9.9375C12.875 10.3125 12.6875 10.7708 12.6875 11.3125C12.6875 11.8958 12.875 12.375 13.25 12.75C13.625 13.125 14.1042 13.3125 14.6875 13.3125ZM5.3125 6C6.0625 6 6.6875 5.75 7.1875 5.25C7.72917 4.70833 8 4.0625 8 3.3125C8 2.60417 7.72917 2 7.1875 1.5C6.6875 0.958333 6.0625 0.6875 5.3125 0.6875C4.60417 0.6875 3.97917 0.958333 3.4375 1.5C2.9375 2 2.6875 2.60417 2.6875 3.3125C2.6875 4.0625 2.9375 4.70833 3.4375 5.25C3.97917 5.75 4.60417 6 5.3125 6ZM8 27.3125V18H10V10C10 9.25 9.72917 8.625 9.1875 8.125C8.6875 7.58333 8.0625 7.3125 7.3125 7.3125H3.3125C2.60417 7.3125 1.97917 7.58333 1.4375 8.125C0.9375 8.625 0.6875 9.25 0.6875 10V18H2.6875V27.3125H8ZM16.6875 27.3125V22H18V16.6875C18 16.1458 17.7917 15.6875 17.375 15.3125C17 14.8958 16.5417 14.6875 16 14.6875H13.3125C12.7708 14.6875 12.2917 14.8958 11.875 15.3125C11.5 15.6875 11.3125 16.1458 11.3125 16.6875V22H12.6875V27.3125H16.6875Z" fill="currentColor"/>
  </symbol>

</svg>